<svg viewBox="0 0 1024 1024" version="1.1" xmlns="http://www.w3.org/2000/svg"
     width="16" height="16">
    <path d="M726.2 327.5L438.9 186.9c-0.5-0.2-1-0.2-1.5-0.4-38.1-21.7-86.4-11.7-112.7 23.4L167.3 384.7c-29 38.6-21.1 93.4 17.5 122.4 11.8 8.9 25.7 14.6 40.3 16.5l-0.4 0.9 185.4 62.1 67.4 180.2c7.3 19.5 26 32.5 46.9 32.4 6 0 11.9-1.1 17.5-3.2 25.8-9.7 38.9-38.5 29.3-64.3l-74.9-199.8c-4.7-12.5-14.3-22.6-26.5-28.1l-118.5-63.3S468 309.1 469.7 306.2l227.7 90.5c4.6 1.9 9.5 2.8 14.4 2.8 20.7 0.2 37.6-16.5 37.8-37.2 0.1-15.2-9.2-29.1-23.4-34.8zM537 0c48.3 0 87.4 39.1 87.4 87.4s-39.1 87.4-87.4 87.4-87.4-39.1-87.4-87.4S488.7 0 537 0"
          fill="#FFBA57"/>
    <path d="M774.2 649.4a25 25 0 1 0 50 0 25 25 0 1 0-50 0zM199.8 774.2a25 25 0 1 0 50 0 25 25 0 1 0-50 0z"
          fill="#d81e06"/>
    <path d="M799.2 849.2c-110.2 0-199.8-89.6-199.8-199.8S689 449.6 799.2 449.6 999 539.2 999 649.4s-89.6 199.8-199.8 199.8z m0-349.7c-82.6 0-149.9 67.2-149.9 149.9s67.2 149.9 149.9 149.9S949.1 732 949.1 649.4s-67.2-149.9-149.9-149.9zM224.8 974C114.6 974 25 884.4 25 774.2s89.6-199.8 199.8-199.8S424.6 664 424.6 774.2 335 974 224.8 974z m0-349.6c-82.6 0-149.9 67.2-149.9 149.9s67.2 149.9 149.9 149.9S374.7 857 374.7 774.3s-67.3-149.9-149.9-149.9z"
          fill="#d81e06"/>
    <path d="M261.9 972.2c84.3 0 139.9-41.8 209.8-64.3 17-5.7 34.8-8.7 52.8-8.7 19.8 0 35.4 25 50 25 99.9 0 129-74.9 224.8-74.9 33.3 0 56.2 25 74.9 25 35.9 0 70.8-124.9 124.9-124.9V1024H25s161.8-51.8 236.9-51.8z"
          fill="#1afa29"/>
    <path d="M167.3 384.6c-29 38.6-21.1 93.4 17.5 122.4 11.8 8.9 25.7 14.6 40.3 16.5l-0.4 0.9 149.9 50.2v-0.3l79.2-79.2-102.4-54.7-184.1-55.8z"
          fill="#5C6BC0"/>
    <path d="M438.9 186.9c-0.5-0.2-1-0.2-1.5-0.4-38.1-21.7-86.4-11.7-112.7 23.4L167.3 384.7l184 55.9S468 309.1 469.5 306.3l66.3 26.2 49.3-74-146.2-71.6z"
          fill="#d81e06"/>
</svg>
