<svg viewBox="0 0 1024 1024" width="16" height="16" xmlns="http://www.w3.org/2000/svg">
    <path fill="#AFB1B3"
          d="M555.5 151.4l303.2 353.1c16 18.6 19.5 44 9.3 66.3-10.2 22.3-31.8 36.1-56.3 36.1H700.5v271.3c0 52.9-43.1 96-96 96h-192c-52.9 0-96-43.1-96-96V606.9H205.3c-24.5 0-46.1-13.8-56.3-36.1-10.2-22.3-6.7-47.7 9.3-66.3l303.2-353.1c11.8-13.7 28.9-21.6 47-21.6s35.2 7.9 47 21.6z m-175 391.5v335.3c0 17.6 14.4 32 32 32h192c17.6 0 32-14.4 32-32V542.9h170.8l-298.8-348-298.8 348h170.8zM860.5 118.9h-704c-17.7 0-32-14.3-32-32s14.3-32 32-32h704c17.7 0 32 14.3 32 32s-14.3 32-32 32z"/>
</svg>