<svg viewBox="0 0 1024 1024" width="16" height="16" xmlns="http://www.w3.org/2000/svg">
    <path fill="#AFB1B3"
          d="M508.5 899.3c-18.1 0-35.2-7.9-47-21.6L158.3 524.6c-16-18.6-19.5-44-9.3-66.3 10.2-22.3 31.8-36.1 56.3-36.1h111.2V150.9c0-52.9 43.1-96 96-96h192c52.9 0 96 43.1 96 96v271.3h111.2c24.5 0 46.1 13.8 56.3 36.1 10.2 22.3 6.7 47.7-9.3 66.3L555.5 877.7c-11.8 13.7-28.9 21.6-47 21.6zM209.7 486.2l298.8 348 298.8-348H636.5V150.9c0-17.6-14.4-32-32-32h-192c-17.6 0-32 14.4-32 32v335.3H209.7zM860.5 910.2h-704c-17.7 0-32 14.3-32 32s14.3 32 32 32h704c17.7 0 32-14.3 32-32 0-17.6-14.3-32-32-32z"/>
</svg>