<svg viewBox="0 0 1024 1024" width="16" height="16" xmlns="http://www.w3.org/2000/svg">
    <path fill="#AFB1B3"
          d="M324.255547 64.151066l11.460006 17.887392c26.238594 40.97932 22.290679 90.291422 18.736736 112.086821 141.269467 121.95047 242.771209 208.268394 269.641183 229.395574 87.936795-39.371706 190.738136-45.74281 282.896068-17.477047l27.158547 8.323573L685.603385 662.883429l270.614347 270.608208-24.152073 24.158213L661.452335 687.036525 412.943448 935.559738l-8.303106-27.158547c-28.767184-93.746104-22.496363-193.812147 17.457604-282.896068-21.148669-26.937512-107.753119-128.766712-229.924623-270.27768-9.311063 0.938372-18.429745 1.437745-27.226085 1.437745-54.849212 0-81.909521-18.161638-84.813664-20.228717l-16.449647-11.714809L324.255547 64.151066 324.255547 64.151066zM324.255547 64.151066"/>
</svg>