<svg viewBox="0 0 1024 1024" width="16" height="16" xmlns="http://www.w3.org/2000/svg">
    <path fill="#AFB1B3"
          d="M998.4 844.8c-25.6 0-44.8 19.2-57.6 38.4s-12.8 44.8-6.4 70.4c-19.2 19.2-44.8 32-70.4 38.4-12.8-19.2-38.4-32-64-32s-44.8 12.8-64 32c-25.6-6.4-51.2-25.6-70.4-38.4 6.4-19.2 6.4-44.8-6.4-70.4s-32-32-57.6-38.4c0-12.8-6.4-25.6-6.4-38.4s0-25.6 6.4-38.4c25.6 0 44.8-19.2 57.6-38.4s12.8-44.8 6.4-70.4c19.2-19.2 44.8-32 70.4-38.4 12.8 19.2 38.4 32 64 32s44.8-12.8 64-32c25.6 6.4 51.2 25.6 70.4 38.4-6.4 19.2-6.4 44.8 6.4 70.4s32 32 57.6 38.4c0 12.8 6.4 25.6 6.4 38.4 0 12.8 0 25.6-6.4 38.4z m-192-121.6c-44.8 0-76.8 32-76.8 76.8s32 76.8 76.8 76.8 76.8-32 76.8-76.8c6.4-38.4-32-76.8-76.8-76.8z"/>
    <path fill="#AFB1B3"
          d="M876.8 576V128c0-19.2-12.8-32-32-32H108.8c-12.8 0-25.6 12.8-25.6 32v531.2c0 19.2 12.8 32 32 32H640s0 6.4-6.4 12.8c-12.8 25.6-44.8 44.8-70.4 44.8v6.4H83.2c-32 0-64-25.6-64-64V96c0-32 25.6-64 64-64h800c32 0 64 25.6 64 64v499.2c-25.6-12.8-44.8-19.2-70.4-19.2 6.4-6.4 6.4-6.4 0 0zM204.8 851.2h384c19.2 6.4 38.4 19.2 44.8 38.4 6.4 6.4 6.4 12.8 6.4 19.2H204.8c-19.2 0-32-12.8-32-32 0-6.4 12.8-25.6 32-25.6z"/>
    <path fill="#AFB1B3"
          d="M390.4 556.8c-6.4-6.4-6.4-6.4-12.8-6.4l-6.4-6.4-6.4-6.4s-6.4 0-6.4-6.4l-6.4-6.4-6.4-6.4-6.4-6.4c-19.2-25.6-32-51.2-38.4-83.2v-12.8c-6.4-38.4 0-76.8 19.2-108.8l-25.6-12.8L390.4 256l12.8 102.4-25.6-19.2c-12.8 25.6-19.2 57.6-19.2 89.6 0 19.2 6.4 32 19.2 44.8l6.4 6.4 6.4 6.4 6.4 6.4c6.4 0 6.4 6.4 12.8 6.4 38.4 25.6 64 32 89.6 25.6 12.8 0 25.6 6.4 25.6 25.6v6.4c0 12.8-12.8 19.2-25.6 19.2h-19.2c-32 0-64-6.4-89.6-19.2zM563.2 537.6l-12.8-102.4 32 12.8c19.2-25.6 25.6-57.6 19.2-89.6 0-19.2-6.4-32-19.2-44.8L576 300.8l-6.4-6.4h-6.4l-6.4-6.4c-6.4 0-6.4-6.4-12.8-6.4-32-19.2-57.6-25.6-83.2-19.2-12.8 0-25.6-12.8-25.6-25.6v-6.4c0-19.2 19.2-25.6 32-25.6 38.4-6.4 76.8 0 108.8 19.2 6.4 0 6.4 6.4 12.8 6.4l6.4 6.4 6.4 6.4 6.4 6.4 6.4 6.4 6.4 6.4c0 6.4 6.4 6.4 6.4 12.8 19.2 25.6 32 51.2 32 76.8v12.8c6.4 44.8 0 83.2-19.2 115.2l25.6 12.8c-96 44.8-96 44.8-102.4 44.8 6.4 0 6.4 0 0 0z"/>
</svg>